<svg width="180" height="180" viewBox="0 0 180 180" fill="none" xmlns="http://www.w3.org/2000/svg">
<rect width="180" height="180" fill="#1F7F57"/>
<path d="M79.29 132.121C78.6553 132.707 77.752 133 76.5801 133H51.0918C49.9199 133 49.0166 132.707 48.3818 132.121C47.7471 131.486 47.4297 130.729 47.4297 129.851C47.4297 129.021 47.7471 128.288 48.3818 127.653C49.0166 127.019 49.8955 126.701 51.0186 126.701H57.2441L85.4424 53.5322H69.5488C68.377 53.5322 67.4736 53.2393 66.8389 52.6533C66.2041 52.0186 65.8867 51.2617 65.8867 50.3828C65.8867 49.5527 66.2041 48.8203 66.8389 48.1855C67.4736 47.5508 68.3525 47.2334 69.4756 47.2334H91.668C94.5 47.2334 96.4775 48.8203 97.6006 51.9941L124.114 126.701H129.9C131.023 126.701 131.878 127.019 132.464 127.653C133.099 128.239 133.416 128.947 133.416 129.777C133.416 130.656 133.074 131.413 132.391 132.048C131.756 132.683 130.877 133 129.754 133H102.947C101.775 133 100.848 132.683 100.164 132.048C99.5293 131.413 99.2119 130.656 99.2119 129.777C99.2119 128.947 99.5293 128.239 100.164 127.653C100.799 127.019 101.678 126.701 102.801 126.701H116.424L108.587 104.289H73.2109L65.0078 126.701H76.6533C77.7764 126.701 78.6553 127.019 79.29 127.653C79.9736 128.288 80.3154 129.021 80.3154 129.851C80.3154 130.729 79.9736 131.486 79.29 132.121ZM91.8145 54.4844L75.6279 98.21H106.39L91.8145 54.4844Z" fill="white"/>
</svg>
