<svg width="26" height="26" viewBox="0 0 26 26" fill="none" xmlns="http://www.w3.org/2000/svg">
<rect width="26" height="26" fill="white"/>
<path d="M11.992 20.464V18.72H13.824V20.464H11.992ZM12 7.648V5.888H13.824V7.648H12ZM12.928 18.936C12.176 18.936 11.504 18.8027 10.912 18.536C10.32 18.264 9.848 17.8533 9.496 17.304C9.14933 16.7547 8.95733 16.0613 8.92 15.224H10.896C10.9333 15.6347 11.04 15.9787 11.216 16.256C11.3973 16.528 11.6427 16.7333 11.952 16.872C12.2613 17.0107 12.616 17.08 13.016 17.08C13.3573 17.08 13.6507 17.032 13.896 16.936C14.1467 16.8347 14.336 16.6907 14.464 16.504C14.5973 16.3173 14.664 16.096 14.664 15.84C14.664 15.5733 14.592 15.3467 14.448 15.16C14.3093 14.968 14.072 14.784 13.736 14.608C13.4053 14.4267 12.9547 14.2293 12.384 14.016C11.76 13.776 11.216 13.504 10.752 13.2C10.288 12.896 9.928 12.528 9.672 12.096C9.42133 11.664 9.296 11.136 9.296 10.512C9.296 9.81867 9.45067 9.24267 9.76 8.784C10.0693 8.32 10.496 7.97333 11.04 7.744C11.584 7.51467 12.2053 7.4 12.904 7.4C14.0453 7.4 14.8907 7.68267 15.44 8.248C15.9893 8.81333 16.312 9.64267 16.408 10.736H14.432C14.4107 10.4107 14.344 10.1387 14.232 9.92C14.12 9.70133 13.952 9.536 13.728 9.424C13.5093 9.312 13.2213 9.256 12.864 9.256C12.4107 9.256 12.0427 9.35733 11.76 9.56C11.4773 9.76267 11.336 10.0667 11.336 10.472C11.336 10.712 11.3867 10.9307 11.488 11.128C11.5893 11.32 11.7813 11.5093 12.064 11.696C12.352 11.8827 12.7707 12.088 13.32 12.312C13.784 12.504 14.2213 12.6907 14.632 12.872C15.0427 13.048 15.4053 13.2533 15.72 13.488C16.04 13.7173 16.288 14.008 16.464 14.36C16.6453 14.7067 16.7387 15.1493 16.744 15.688C16.7493 16.7493 16.4107 17.5573 15.728 18.112C15.0507 18.6613 14.1173 18.936 12.928 18.936Z" fill="#3C8D3A"/>
</svg>
