<svg width="26" height="26" viewBox="0 0 26 26" fill="none" xmlns="http://www.w3.org/2000/svg">
<path d="M11.99 22.83V20.65H14.28V22.83H11.99ZM12 6.81V4.61H14.28V6.81H12ZM13.16 20.92C12.22 20.92 11.38 20.7533 10.64 20.42C9.9 20.08 9.31 19.5667 8.87 18.88C8.43667 18.1933 8.19667 17.3267 8.15 16.28H10.62C10.6667 16.7933 10.8 17.2233 11.02 17.57C11.2467 17.91 11.5533 18.1667 11.94 18.34C12.3267 18.5133 12.77 18.6 13.27 18.6C13.6967 18.6 14.0633 18.54 14.37 18.42C14.6833 18.2933 14.92 18.1133 15.08 17.88C15.2467 17.6467 15.33 17.37 15.33 17.05C15.33 16.7167 15.24 16.4333 15.06 16.2C14.8867 15.96 14.59 15.73 14.17 15.51C13.7567 15.2833 13.1933 15.0367 12.48 14.77C11.7 14.47 11.02 14.13 10.44 13.75C9.86 13.37 9.41 12.91 9.09 12.37C8.77667 11.83 8.62 11.17 8.62 10.39C8.62 9.52333 8.81333 8.80333 9.2 8.23C9.58667 7.65 10.12 7.21667 10.8 6.93C11.48 6.64333 12.2567 6.5 13.13 6.5C14.5567 6.5 15.6133 6.85333 16.3 7.56C16.9867 8.26667 17.39 9.30333 17.51 10.67H15.04C15.0133 10.2633 14.93 9.92333 14.79 9.65C14.65 9.37667 14.44 9.17 14.16 9.03C13.8867 8.89 13.5267 8.82 13.08 8.82C12.5133 8.82 12.0533 8.94667 11.7 9.2C11.3467 9.45333 11.17 9.83333 11.17 10.34C11.17 10.64 11.2333 10.9133 11.36 11.16C11.4867 11.4 11.7267 11.6367 12.08 11.87C12.44 12.1033 12.9633 12.36 13.65 12.64C14.23 12.88 14.7767 13.1133 15.29 13.34C15.8033 13.56 16.2567 13.8167 16.65 14.11C17.05 14.3967 17.36 14.76 17.58 15.2C17.8067 15.6333 17.9233 16.1867 17.93 16.86C17.9367 18.1867 17.5133 19.1967 16.66 19.89C15.8133 20.5767 14.6467 20.92 13.16 20.92Z" fill="#3C8D3A"/>
</svg>
